<mxfile host="Electron" modified="2024-06-29T08:44:05.538Z" agent="Mozilla/5.0 (Windows NT 10.0; Win64; x64) AppleWebKit/537.36 (KHTML, like Gecko) draw.io/24.5.3 Chrome/124.0.6367.207 Electron/30.0.6 Safari/537.36" etag="2QEMwXk2KMrd2qjuHxsc" version="24.5.3" type="device">
  <diagram name="第 1 页" id="DkO4VOrxJpyLxmS-HOYj">
    <mxGraphModel dx="1036" dy="1014" grid="0" gridSize="10" guides="1" tooltips="1" connect="1" arrows="1" fold="1" page="0" pageScale="1" pageWidth="827" pageHeight="1169" math="0" shadow="0">
      <root>
        <mxCell id="0" />
        <mxCell id="1" parent="0" />
        <mxCell id="jTgG7oyzbI1Rzm9RZRKz-20" style="edgeStyle=orthogonalEdgeStyle;rounded=0;orthogonalLoop=1;jettySize=auto;html=1;entryX=0;entryY=0.5;entryDx=0;entryDy=0;fillColor=#dae8fc;strokeColor=#6c8ebf;" edge="1" parent="1" source="jTgG7oyzbI1Rzm9RZRKz-1" target="jTgG7oyzbI1Rzm9RZRKz-19">
          <mxGeometry relative="1" as="geometry" />
        </mxCell>
        <mxCell id="jTgG7oyzbI1Rzm9RZRKz-1" value="探索" style="rounded=0;whiteSpace=wrap;html=1;" vertex="1" parent="1">
          <mxGeometry x="43" y="210" width="120" height="60" as="geometry" />
        </mxCell>
        <mxCell id="jTgG7oyzbI1Rzm9RZRKz-12" value="" style="edgeStyle=orthogonalEdgeStyle;rounded=0;orthogonalLoop=1;jettySize=auto;html=1;" edge="1" parent="1" source="jTgG7oyzbI1Rzm9RZRKz-2" target="jTgG7oyzbI1Rzm9RZRKz-11">
          <mxGeometry relative="1" as="geometry" />
        </mxCell>
        <mxCell id="jTgG7oyzbI1Rzm9RZRKz-2" value="主线" style="rounded=0;whiteSpace=wrap;html=1;strokeColor=default;align=center;verticalAlign=middle;fontFamily=Helvetica;fontSize=12;fontColor=default;fillColor=default;" vertex="1" parent="1">
          <mxGeometry x="270" y="340" width="90" height="40" as="geometry" />
        </mxCell>
        <mxCell id="jTgG7oyzbI1Rzm9RZRKz-10" value="" style="edgeStyle=orthogonalEdgeStyle;rounded=0;orthogonalLoop=1;jettySize=auto;html=1;" edge="1" parent="1" source="jTgG7oyzbI1Rzm9RZRKz-3" target="jTgG7oyzbI1Rzm9RZRKz-9">
          <mxGeometry relative="1" as="geometry" />
        </mxCell>
        <mxCell id="jTgG7oyzbI1Rzm9RZRKz-3" value="支线" style="rounded=0;whiteSpace=wrap;html=1;strokeColor=default;align=center;verticalAlign=middle;fontFamily=Helvetica;fontSize=12;fontColor=default;fillColor=default;" vertex="1" parent="1">
          <mxGeometry x="270" y="90" width="90" height="40" as="geometry" />
        </mxCell>
        <mxCell id="jTgG7oyzbI1Rzm9RZRKz-4" value="" style="endArrow=classic;html=1;rounded=0;entryX=0;entryY=0.5;entryDx=0;entryDy=0;exitX=1;exitY=0;exitDx=0;exitDy=0;" edge="1" parent="1" source="jTgG7oyzbI1Rzm9RZRKz-1" target="jTgG7oyzbI1Rzm9RZRKz-3">
          <mxGeometry width="50" height="50" relative="1" as="geometry">
            <mxPoint x="165" y="209" as="sourcePoint" />
            <mxPoint x="238" y="165" as="targetPoint" />
          </mxGeometry>
        </mxCell>
        <mxCell id="jTgG7oyzbI1Rzm9RZRKz-8" value="地图推进" style="edgeLabel;html=1;align=center;verticalAlign=middle;resizable=0;points=[];" vertex="1" connectable="0" parent="jTgG7oyzbI1Rzm9RZRKz-4">
          <mxGeometry x="-0.1087" y="-1" relative="1" as="geometry">
            <mxPoint as="offset" />
          </mxGeometry>
        </mxCell>
        <mxCell id="jTgG7oyzbI1Rzm9RZRKz-6" value="" style="endArrow=classic;html=1;rounded=0;" edge="1" parent="1">
          <mxGeometry width="50" height="50" relative="1" as="geometry">
            <mxPoint x="163" y="270" as="sourcePoint" />
            <mxPoint x="267" y="356" as="targetPoint" />
          </mxGeometry>
        </mxCell>
        <mxCell id="jTgG7oyzbI1Rzm9RZRKz-7" value="地图推进" style="edgeLabel;html=1;align=center;verticalAlign=middle;resizable=0;points=[];" vertex="1" connectable="0" parent="jTgG7oyzbI1Rzm9RZRKz-6">
          <mxGeometry x="-0.3327" y="2" relative="1" as="geometry">
            <mxPoint as="offset" />
          </mxGeometry>
        </mxCell>
        <mxCell id="jTgG7oyzbI1Rzm9RZRKz-14" value="" style="edgeStyle=orthogonalEdgeStyle;rounded=0;orthogonalLoop=1;jettySize=auto;html=1;" edge="1" parent="1" source="jTgG7oyzbI1Rzm9RZRKz-9" target="jTgG7oyzbI1Rzm9RZRKz-13">
          <mxGeometry relative="1" as="geometry" />
        </mxCell>
        <mxCell id="jTgG7oyzbI1Rzm9RZRKz-9" value="支线boss" style="rounded=0;whiteSpace=wrap;html=1;" vertex="1" parent="1">
          <mxGeometry x="478" y="90" width="60" height="40" as="geometry" />
        </mxCell>
        <mxCell id="jTgG7oyzbI1Rzm9RZRKz-11" value="主线boss" style="rounded=0;whiteSpace=wrap;html=1;" vertex="1" parent="1">
          <mxGeometry x="478" y="340" width="67" height="40" as="geometry" />
        </mxCell>
        <mxCell id="jTgG7oyzbI1Rzm9RZRKz-17" style="edgeStyle=orthogonalEdgeStyle;rounded=0;orthogonalLoop=1;jettySize=auto;html=1;fillColor=#dae8fc;strokeColor=#6c8ebf;" edge="1" parent="1" source="jTgG7oyzbI1Rzm9RZRKz-13">
          <mxGeometry relative="1" as="geometry">
            <mxPoint x="104.79998779296875" y="207.79998779296875" as="targetPoint" />
          </mxGeometry>
        </mxCell>
        <mxCell id="jTgG7oyzbI1Rzm9RZRKz-18" value="作用于游戏探索" style="edgeLabel;html=1;align=center;verticalAlign=middle;resizable=0;points=[];" vertex="1" connectable="0" parent="jTgG7oyzbI1Rzm9RZRKz-17">
          <mxGeometry x="-0.4016" y="-3" relative="1" as="geometry">
            <mxPoint as="offset" />
          </mxGeometry>
        </mxCell>
        <mxCell id="jTgG7oyzbI1Rzm9RZRKz-13" value="获取碎片信息" style="rounded=0;whiteSpace=wrap;html=1;strokeColor=default;align=center;verticalAlign=middle;fontFamily=Helvetica;fontSize=12;fontColor=default;fillColor=default;" vertex="1" parent="1">
          <mxGeometry x="468.5" y="-90" width="80" height="40" as="geometry" />
        </mxCell>
        <mxCell id="jTgG7oyzbI1Rzm9RZRKz-22" value="" style="edgeStyle=orthogonalEdgeStyle;rounded=0;orthogonalLoop=1;jettySize=auto;html=1;fillColor=#dae8fc;strokeColor=#6c8ebf;" edge="1" parent="1" source="jTgG7oyzbI1Rzm9RZRKz-19" target="jTgG7oyzbI1Rzm9RZRKz-21">
          <mxGeometry relative="1" as="geometry" />
        </mxCell>
        <mxCell id="jTgG7oyzbI1Rzm9RZRKz-19" value="收集" style="rounded=0;whiteSpace=wrap;html=1;strokeColor=default;align=center;verticalAlign=middle;fontFamily=Helvetica;fontSize=12;fontColor=default;fillColor=default;" vertex="1" parent="1">
          <mxGeometry x="273" y="223.5" width="66" height="33" as="geometry" />
        </mxCell>
        <mxCell id="jTgG7oyzbI1Rzm9RZRKz-21" value="属性强化" style="rounded=0;whiteSpace=wrap;html=1;strokeColor=default;align=center;verticalAlign=middle;fontFamily=Helvetica;fontSize=12;fontColor=default;fillColor=default;" vertex="1" parent="1">
          <mxGeometry x="426" y="223.5" width="66" height="33" as="geometry" />
        </mxCell>
        <mxCell id="jTgG7oyzbI1Rzm9RZRKz-24" value="" style="endArrow=classic;html=1;rounded=0;" edge="1" parent="1">
          <mxGeometry width="50" height="50" relative="1" as="geometry">
            <mxPoint x="446" y="220" as="sourcePoint" />
            <mxPoint x="479" y="132" as="targetPoint" />
          </mxGeometry>
        </mxCell>
        <mxCell id="jTgG7oyzbI1Rzm9RZRKz-25" value="作用于挑战" style="edgeLabel;html=1;align=center;verticalAlign=middle;resizable=0;points=[];" vertex="1" connectable="0" parent="jTgG7oyzbI1Rzm9RZRKz-24">
          <mxGeometry x="0.0254" y="-2" relative="1" as="geometry">
            <mxPoint as="offset" />
          </mxGeometry>
        </mxCell>
        <mxCell id="jTgG7oyzbI1Rzm9RZRKz-29" value="" style="endArrow=classic;html=1;rounded=0;entryX=0;entryY=0;entryDx=0;entryDy=0;exitX=0.25;exitY=1;exitDx=0;exitDy=0;" edge="1" parent="1" source="jTgG7oyzbI1Rzm9RZRKz-21" target="jTgG7oyzbI1Rzm9RZRKz-11">
          <mxGeometry width="50" height="50" relative="1" as="geometry">
            <mxPoint x="387" y="243" as="sourcePoint" />
            <mxPoint x="437" y="193" as="targetPoint" />
          </mxGeometry>
        </mxCell>
        <mxCell id="jTgG7oyzbI1Rzm9RZRKz-30" value="作用于挑战" style="edgeLabel;html=1;align=center;verticalAlign=middle;resizable=0;points=[];" vertex="1" connectable="0" parent="jTgG7oyzbI1Rzm9RZRKz-29">
          <mxGeometry x="0.0172" y="-2" relative="1" as="geometry">
            <mxPoint as="offset" />
          </mxGeometry>
        </mxCell>
        <mxCell id="jTgG7oyzbI1Rzm9RZRKz-32" value="" style="endArrow=classic;html=1;rounded=0;" edge="1" parent="1">
          <mxGeometry width="50" height="50" relative="1" as="geometry">
            <mxPoint x="316" y="83" as="sourcePoint" />
            <mxPoint x="472" y="-44" as="targetPoint" />
          </mxGeometry>
        </mxCell>
        <mxCell id="jTgG7oyzbI1Rzm9RZRKz-33" value="" style="endArrow=classic;startArrow=classic;html=1;rounded=0;entryX=0.5;entryY=1;entryDx=0;entryDy=0;" edge="1" parent="1" target="jTgG7oyzbI1Rzm9RZRKz-9">
          <mxGeometry width="50" height="50" relative="1" as="geometry">
            <mxPoint x="508" y="336" as="sourcePoint" />
            <mxPoint x="563" y="279" as="targetPoint" />
          </mxGeometry>
        </mxCell>
        <mxCell id="jTgG7oyzbI1Rzm9RZRKz-34" value="" style="endArrow=classic;html=1;rounded=0;" edge="1" parent="1">
          <mxGeometry width="50" height="50" relative="1" as="geometry">
            <mxPoint x="507" y="222" as="sourcePoint" />
            <mxPoint x="673" y="222" as="targetPoint" />
          </mxGeometry>
        </mxCell>
        <mxCell id="jTgG7oyzbI1Rzm9RZRKz-35" value="最终boss辐光&amp;nbsp;" style="rounded=0;whiteSpace=wrap;html=1;" vertex="1" parent="1">
          <mxGeometry x="675" y="203" width="86" height="46" as="geometry" />
        </mxCell>
      </root>
    </mxGraphModel>
  </diagram>
</mxfile>
